HIERARCHY
ROOT Hips
{
	OFFSET 0.000000 0.000000 0.000000
	CHANNELS 6 Xposition Yposition Zposition Zrotation Yrotation Xrotation 
	JOINT LHipJoint
	{
		OFFSET 0.000000 0.000000 0.000000
		CHANNELS 3 Zrotation Yrotation Xrotation
		JOINT LeftUpLeg
		{
			OFFSET 1.363060 -1.794630 0.839290
			CHANNELS 3 Zrotation Yrotation Xrotation
			JOINT LeftLeg
			{
				OFFSET 2.448110 -6.726130 0.000000
				CHANNELS 3 Zrotation Yrotation Xrotation
				JOINT LeftFoot
				{
					OFFSET 2.562200 -7.039590 0.000000
					CHANNELS 3 Zrotation Yrotation Xrotation
					JOINT LeftToeBase
					{
						OFFSET 0.157640 -0.433110 2.322550
						CHANNELS 3 Zrotation Yrotation Xrotation
						End Site
						{
							OFFSET 0.000000 0.000000 0.000000
						}
					}
				}
			}
		}
	}
	JOINT RHipJoint
	{
		OFFSET 0.000000 0.000000 0.000000
		CHANNELS 3 Zrotation Yrotation Xrotation
		JOINT RightUpLeg
		{
			OFFSET -1.305520 -1.794630 0.839290
			CHANNELS 3 Zrotation Yrotation Xrotation
			JOINT RightLeg
			{
				OFFSET -2.542530 -6.985550 0.000000
				CHANNELS 3 Zrotation Yrotation Xrotation
				JOINT RightFoot
				{
					OFFSET -2.568260 -7.056230 0.000000
					CHANNELS 3 Zrotation Yrotation Xrotation
					JOINT RightToeBase
					{
						OFFSET -0.164730 -0.452590 2.363150
						CHANNELS 3 Zrotation Yrotation Xrotation
						End Site
						{
							OFFSET 0.000000 0.000000 0.000000
						}
					}
				}
			}
		}
	}
}
MOTION
Frames: 34
Frame Time: 0.008333
25.800722 16.911145 4.482467 151.762768 -88.105577 -125.700243 -13.038594 5.094216 1.111551 -2.914424 13.000850 -7.194757 -0.990272 0.638378 15.181401 0.942509 1.819603 23.873365 0.497300 0.000001 -86.281700 7.624129 -1.632076 5.463791 11.078491 7.607283 -48.350997 2.933833 -0.965418 26.135928 -0.527289 0.143757 -7.844342 -0.259100 -0.000000 -39.828200
25.615579 16.885843 4.440319 143.385448 -88.099154 -117.548169 -13.184396 5.131482 1.176903 -2.562076 12.991649 -7.027290 -0.869521 0.678704 16.023700 1.008065 1.490052 25.012620 0.307601 0.000000 -85.150700 7.547180 -1.671808 5.400663 10.962907 7.792036 -48.158488 2.757412 -1.139386 28.052804 -0.615002 -0.012134 -8.686611 -0.207700 -0.000000 -36.222600
25.430839 16.864799 4.398002 133.062336 -88.120432 -107.445228 -13.328285 5.124791 1.243971 -2.185100 12.951490 -6.953228 -0.728356 0.704607 16.965758 1.082602 1.194122 26.235904 0.124100 0.000000 -83.861900 7.453928 -1.752184 5.353228 10.911155 7.934601 -47.857754 2.617614 -1.279416 29.700029 -0.732827 -0.257596 -9.693715 -0.147000 0.000000 -33.100700
25.246990 16.848691 4.356218 118.849917 -88.183027 -93.468102 -13.448560 5.054369 1.298212 -1.750716 12.899095 -6.952949 -0.563215 0.710829 18.029917 1.159286 0.909307 27.479399 -0.061500 -0.000000 -81.726700 7.357470 -1.893393 5.318138 10.948075 8.016818 -47.411019 2.521839 -1.397229 31.031809 -0.880466 -0.596228 -10.831406 -0.072299 0.000000 -30.510101
25.063904 16.837484 4.314188 95.351801 -88.276076 -70.199056 -13.430949 4.892811 1.340485 -1.259409 12.768805 -7.041226 -0.364969 0.683534 19.212078 1.231274 0.721779 28.705969 -0.194700 0.000000 -79.250800 7.350667 -2.112911 5.325309 11.065024 8.029209 -46.865744 2.471649 -1.517935 32.006385 -1.060725 -1.051048 -12.046673 0.018900 0.000000 -28.557200
24.875255 16.833176 4.279697 19.135185 -89.073122 6.077538 -12.506819 5.028404 1.593702 -0.175190 11.913921 -7.876258 -0.357395 0.772561 20.894053 1.353272 0.609954 29.577696 -0.320200 -0.000000 -76.412700 8.197324 -1.742489 5.252618 12.116436 7.692847 -46.214499 2.479457 -1.506464 32.379997 -1.263078 -1.660432 -13.166276 0.127100 0.000000 -27.098600
24.694913 16.831784 4.237619 15.467090 -88.995979 9.584498 -12.540302 5.053505 1.666069 0.190786 11.791055 -8.206425 -0.286545 0.816146 22.155383 1.476989 0.785962 30.556595 -0.275600 0.000000 -73.087000 8.173992 -1.681872 5.182222 12.334456 7.781782 -45.322619 2.430830 -1.450870 32.805188 -1.443333 -2.150797 -14.287964 0.255800 -0.000000 -26.218600
24.516226 16.835040 4.195227 13.373235 -88.814769 11.517173 -12.562649 5.046019 1.738181 0.513415 11.603628 -8.607333 -0.214719 0.849892 23.481490 1.594822 1.165717 31.325803 -0.099800 -0.000000 -69.552499 8.147859 -1.650603 5.112892 12.553401 7.792856 -44.321263 2.401853 -1.376193 32.947476 -1.624078 -2.657565 -15.317270 0.395199 0.000000 -25.731000
24.339214 16.842671 4.152499 12.419182 -88.548288 12.308253 -12.564504 5.013756 1.807840 0.787452 11.356890 -9.072293 -0.145707 0.878545 24.862227 1.703745 1.756611 31.829324 0.215100 -0.000000 -65.927800 8.131251 -1.639913 5.041857 12.766003 7.726691 -43.221373 2.387248 -1.286591 32.835001 -1.795095 -3.155582 -16.206748 0.536300 0.000000 -25.517200
24.163769 16.854289 4.109336 12.315075 -88.211852 12.249138 -12.543207 4.963545 1.874049 1.004370 11.056509 -9.594270 -0.081031 0.905622 26.282533 1.802254 2.555365 32.034395 0.665300 0.000000 -62.423200 8.130737 -1.644446 4.967464 12.961139 7.583032 -42.040712 2.382409 -1.186402 32.504196 -1.946806 -3.619506 -16.923292 0.668200 -0.000000 -25.465400
23.990206 16.869589 4.065760 12.767193 -87.824352 11.631285 -12.501632 4.900877 1.934869 1.161217 10.715322 -10.166136 -0.021617 0.934271 27.726752 1.889932 3.538442 31.925043 1.229400 0.000001 -59.209600 8.147173 -1.660164 4.888127 13.132147 7.366484 -40.795930 2.383806 -1.079179 31.992607 -2.071879 -4.029277 -17.447954 0.781100 -0.000000 -25.483000
23.817953 16.888185 4.021696 13.623338 -87.400222 10.611481 -12.443030 4.829831 1.988657 1.254038 10.351520 -10.786890 0.031947 0.966232 29.183990 1.965969 4.663550 31.490902 1.870000 0.000001 -56.277499 8.180836 -1.685680 4.805138 13.271277 7.082511 -39.510858 2.388881 -0.968786 31.339870 -2.165590 -4.369251 -17.778167 0.867200 0.000000 -25.507300
23.647331 16.909850 3.977284 14.681940 -86.960077 9.389874 -12.373528 4.752786 2.034552 1.286553 9.979270 -11.445774 0.080119 1.001618 30.624693 2.033977 5.897181 30.780155 2.554001 0.000000 -53.981700 8.227658 -1.718899 4.718249 13.380150 6.743709 -38.199803 2.396185 -0.857343 30.577378 -2.226926 -4.634267 -17.923087 0.922900 0.000000 -25.507600
23.478096 16.934309 3.932529 15.872119 -86.519661 8.039978 -12.297149 4.671546 2.070369 1.261544 9.623470 -12.141261 0.121890 1.040474 32.035274 2.094145 7.183198 29.813253 3.234900 -0.000000 -52.201001 8.285293 -1.759331 4.629506 13.458844 6.360154 -36.880999 2.404952 -0.747201 29.735959 -2.257065 -4.822449 -17.904276 0.947900 -0.000000 -25.479900
23.310022 16.961273 3.887430 17.178385 -86.091998 6.581335 -12.216514 4.587207 2.096738 1.177879 9.300217 -12.871830 0.157104 1.080981 33.394297 2.148195 8.477981 28.639079 3.877200 -0.000001 -50.902600 8.352198 -1.806791 4.541775 13.506668 5.939450 -35.576487 2.414820 -0.640659 28.845698 -2.258701 -4.934679 -17.749902 0.945100 -0.000000 -25.442900
23.143300 16.990646 3.842352 18.416510 -85.701358 5.189513 -12.138849 4.500063 2.105865 1.059561 9.044359 -13.617901 0.183370 1.124463 34.680226 2.197886 9.731215 27.313435 4.446400 0.000000 -50.031200 8.419964 -1.858709 4.451988 13.541576 5.505202 -34.262997 2.426185 -0.534934 27.901783 -2.238571 -4.991133 -17.484528 0.920000 -0.000000 -25.430000
22.977879 17.022139 3.797046 19.717047 -85.349969 3.739837 -12.062106 4.410619 2.102374 0.893971 8.856796 -14.383767 0.201565 1.167194 35.874327 2.243841 10.916361 25.890888 4.928600 0.000000 -49.417200 8.491161 -1.916110 4.365108 13.555456 5.055686 -32.972017 2.438688 -0.433288 26.934368 -2.199259 -4.991208 -17.135990 0.876900 0.000000 -25.486400
22.813385 17.055507 3.751605 21.062444 -85.047839 2.248638 -11.988137 4.318742 2.085912 0.686145 8.742821 -15.155167 0.211998 1.207101 36.950288 2.289091 12.021097 24.458073 5.326500 -0.000000 -49.221100 8.563206 -1.977804 4.280373 13.552792 4.600817 -31.697331 2.452248 -0.334858 25.944159 -2.145091 -4.946743 -16.721311 0.820400 -0.000000 -25.660000
22.649725 17.090479 3.706032 22.452366 -84.800867 0.712074 -11.917974 4.225284 2.053637 0.441913 8.714162 -15.922981 0.213636 1.244566 37.903335 2.331147 13.013480 23.035121 5.629300 0.000000 -49.029200 8.634338 -2.043426 4.197374 13.537044 4.148467 -30.429232 2.466459 -0.239156 24.929563 -2.079154 -4.867996 -16.248072 0.753401 0.000000 -25.998100
22.486980 17.126710 3.660287 23.942627 -84.608024 -0.925892 -11.850830 4.130288 2.008433 0.156620 8.757997 -16.678786 0.208032 1.277252 38.717000 2.371606 13.898671 21.689624 5.856501 -0.000000 -48.970900 8.705214 -2.112546 4.116317 13.503692 3.701264 -29.168474 2.480458 -0.146758 23.893098 -2.002505 -4.758519 -15.716358 0.677000 0.000000 -26.537600
22.324760 17.163815 3.614318 25.576093 -84.466917 -2.708543 -11.786332 4.034469 1.951849 -0.171683 8.863085 -17.416268 0.195983 1.304526 39.388053 2.409450 14.673186 20.448936 6.019200 -0.000000 -48.936500 8.776153 -2.184956 4.037219 13.449228 3.262941 -27.912994 2.493267 -0.058334 22.835940 -1.915244 -4.619875 -15.119039 0.591700 0.000000 -27.297100
22.162681 17.201234 3.568170 27.379478 -84.373399 -4.655246 -11.724457 3.939240 1.887270 -0.544070 9.018055 -18.144228 0.177471 1.326788 39.929132 2.441888 15.327200 19.303426 6.119200 0.000000 -48.753200 8.847261 -2.261219 3.963356 13.371357 2.840474 -26.670771 2.503852 0.025299 21.764038 -1.817051 -4.451848 -14.445129 0.497100 -0.000000 -28.268700
22.001387 17.238773 3.521596 29.464189 -84.318734 -6.896430 -11.663990 3.844186 1.811146 -0.965070 9.197483 -18.819795 0.154859 1.343392 40.322142 2.470010 15.881176 18.286695 6.180700 0.000001 -48.573400 8.920855 -2.339187 3.882898 13.256916 2.421701 -25.410169 2.511018 0.101721 20.674531 -1.704887 -4.243993 -13.681826 0.393300 -0.000000 -29.439600
21.839975 17.275717 3.474846 31.812513 -84.297458 -9.390248 -11.605523 3.751408 1.733865 -1.435133 9.385277 -19.489080 0.127102 1.355429 40.602623 2.490492 16.323197 17.348991 6.195000 0.000000 -48.192900 8.995557 -2.420248 3.808474 13.109547 2.025574 -24.174241 2.514078 0.170105 19.589192 -1.579966 -3.996397 -12.824144 0.282000 0.000000 -30.736600
21.678482 17.311727 3.427943 34.474193 -84.302049 -12.186560 -11.548732 3.661538 1.656968 -1.953837 9.560351 -20.144827 0.094659 1.363536 40.776849 2.503195 16.663575 16.475146 6.168900 0.000000 -47.703399 9.071794 -2.503223 3.736936 12.925173 1.651936 -22.959816 2.512407 0.228864 18.517656 -1.441933 -3.702943 -11.869779 0.166299 0.000000 -32.096600
21.516801 17.346448 3.380982 37.463978 -84.325855 -15.298316 -11.493166 3.575251 1.583135 -2.518570 9.707191 -20.795098 0.056927 1.369191 40.862876 2.507400 16.906535 15.626340 6.099600 -0.000000 -47.087800 9.149177 -2.586922 3.668249 12.705022 1.304176 -21.776081 2.505794 0.276711 17.475752 -1.292057 -3.360661 -10.824273 0.050899 0.000000 -33.451900
21.354766 17.379627 3.334201 40.761404 -84.364663 -18.695392 -11.438096 3.492988 1.516702 -3.123280 9.810950 -21.454424 0.013339 1.373259 40.875826 2.503906 17.062993 14.776186 5.989000 0.000001 -46.466000 9.226867 -2.670308 3.604645 12.455356 0.990198 -20.636940 2.494337 0.313591 16.477379 -1.133577 -2.973608 -9.699529 -0.058600 -0.000000 -34.739600
21.192401 17.411097 3.287781 44.327218 -84.414226 -22.336891 -11.382071 3.414730 1.459206 -3.760519 9.865367 -22.133660 -0.037354 1.377153 40.833425 2.493011 17.138795 13.883696 5.832300 0.000000 -45.792600 9.304310 -2.752165 3.546486 12.184264 0.713460 -19.549738 2.478328 0.339656 15.533857 -0.970412 -2.549179 -8.511332 -0.156600 0.000000 -35.931300
21.029554 17.440819 3.241973 48.103066 -84.471446 -26.160180 -11.323250 3.339699 1.412626 -4.421630 9.864701 -22.843064 -0.095738 1.381187 40.746456 2.476712 17.148695 12.928807 5.632900 0.000000 -45.148600 9.381047 -2.831634 3.494434 11.902445 0.476473 -18.521865 2.458373 0.355855 14.652155 -0.807252 -2.099472 -7.278750 -0.238200 0.000000 -37.023400
20.866343 17.468817 3.196948 52.026689 -84.532496 -30.102842 -11.259614 3.266907 1.377218 -5.099162 9.808473 -23.586991 -0.162455 1.385364 40.622923 2.457096 17.106618 11.891650 5.393100 -0.000000 -44.521500 9.457139 -2.908204 3.447591 11.618981 0.276053 -17.554138 2.435040 0.363264 13.835130 -0.648439 -1.637749 -6.020395 -0.300400 0.000000 -38.044700
20.702608 17.495188 3.152894 56.005944 -84.595605 -34.073799 -11.189484 3.194311 1.353550 -5.784693 9.696657 -24.370637 -0.237313 1.388924 40.465888 2.437342 17.031237 10.769352 5.120499 0.000000 -43.954700 9.531807 -2.981885 3.406231 11.345609 0.111999 -16.646907 2.409003 0.363598 13.079021 -0.498689 -1.183245 -4.752751 -0.342300 -0.000000 -39.039299
20.538425 17.520030 3.109949 59.961224 -84.658666 -37.995182 -11.111707 3.120174 1.341538 -6.472439 9.530162 -25.192679 -0.319811 1.390661 40.273692 2.420794 16.941155 9.565687 4.823200 -0.000000 -43.436700 9.604528 -3.053109 3.369432 11.090592 -0.020094 -15.795452 2.380785 0.358446 12.376586 -0.361490 -0.753287 -3.487621 -0.365399 0.000000 -40.067700
20.373419 17.543393 3.068367 63.774171 -84.724024 -41.742992 -11.026361 3.041817 1.344159 -7.154064 9.306234 -26.063039 -0.408420 1.388692 40.046007 2.411494 16.856671 8.293024 4.511200 -0.000000 -42.924300 9.672819 -3.123819 3.340679 10.868107 -0.115948 -15.004491 2.351516 0.349987 11.718451 -0.240140 -0.368634 -2.233351 -0.373500 0.000001 -41.164500
20.208172 17.565352 3.027786 67.479107 -84.782856 -45.370630 -10.932072 2.960258 1.355830 -7.834443 9.026802 -26.944218 -0.502376 1.382031 39.758826 2.412085 16.793612 6.987009 4.196700 0.000000 -42.656400 9.739439 -3.191689 3.309978 10.665747 -0.194435 -14.240597 2.319816 0.338530 11.085955 -0.134361 -0.033660 -0.984326 -0.370000 0.000000 -42.450099
